<?xml version="1.0" encoding="UTF-8" standalone="no"?><!DOCTYPE svg PUBLIC "-//W3C//DTD SVG 1.1//EN" "http://www.w3.org/Graphics/SVG/1.1/DTD/svg11.dtd"><svg width="100%" height="100%" viewBox="0 0 309 309" version="1.1" xmlns="http://www.w3.org/2000/svg" xmlns:xlink="http://www.w3.org/1999/xlink" xml:space="preserve" style="fill-rule:evenodd;clip-rule:evenodd;stroke-linejoin:round;stroke-miterlimit:1.41421;"><path d="M123.988,211.064l-112.704,0c-7.021,-17.607 -10.882,-36.81 -10.882,-56.908c0,-84.929 68.951,-153.88 153.88,-153.88c84.928,0 153.88,68.951 153.88,153.88c0,20.637 -4.072,40.332 -11.455,58.322l-40.812,0l0,-173.44l-60.469,0l0,40.359l20.109,0l0,161.297l0.065,0l0,3.267l63.618,0c-27.949,38.797 -73.514,64.075 -124.936,64.075c-51.422,0 -96.987,-25.278 -124.936,-64.075l134.921,0l0,-3.267l0.081,0l0,-201.656l-60.469,0l0,40.359l20.109,0l0,131.667Z"/></svg>