<?xml version="1.0" encoding="UTF-8" standalone="no"?><!DOCTYPE svg PUBLIC "-//W3C//DTD SVG 1.1//EN" "http://www.w3.org/Graphics/SVG/1.1/DTD/svg11.dtd"><svg width="100%" height="100%" viewBox="0 0 862 309" version="1.1" xmlns="http://www.w3.org/2000/svg" xmlns:xlink="http://www.w3.org/1999/xlink" xml:space="preserve" style="fill-rule:evenodd;clip-rule:evenodd;stroke-linejoin:round;stroke-miterlimit:1.41421;"><g><path d="M648.395,208.157l-40.36,0l0,-161.297l-20.109,0l0,-40.359l60.469,0l0,201.656Z" style="fill-rule:nonzero;"/><path d="M739.942,208.157l-40.36,0l0,-161.297l-20.109,0l0,-40.359l60.469,0l0,201.656Z" style="fill-rule:nonzero;"/></g><rect x="699.453" y="179.946" width="150.983" height="31.581"/><rect x="12.638" y="178.527" width="635.676" height="33"/><g><path d="M86.508,149.961l0,-143.242l21.524,0c9.586,0 17.225,0.742 22.915,2.226c5.752,1.485 10.607,3.99 14.565,7.515c4.02,3.649 7.205,8.195 9.556,13.638c2.412,5.504 3.618,11.071 3.618,16.699c0,10.267 -3.928,18.957 -11.782,26.069c7.607,2.598 13.606,7.144 17.998,13.638c4.453,6.432 6.679,13.916 6.679,22.451c0,11.195 -3.958,20.658 -11.875,28.389c-4.762,4.762 -10.112,8.071 -16.049,9.927c-6.495,1.793 -14.628,2.69 -24.4,2.69l-32.749,0Zm21.616,-81.733l6.773,0c8.04,0 13.931,-1.779 17.673,-5.335c3.742,-3.556 5.613,-8.798 5.613,-15.725c0,-6.741 -1.917,-11.859 -5.752,-15.354c-3.835,-3.494 -9.401,-5.242 -16.699,-5.242l-7.608,0l0,41.656Zm0,61.416l13.36,0c9.772,0 16.946,-1.918 21.523,-5.752c4.824,-4.144 7.237,-9.401 7.237,-15.772c0,-6.185 -2.32,-11.38 -6.958,-15.586c-4.515,-4.144 -12.587,-6.216 -24.214,-6.216l-10.948,0l0,43.326Z" style="fill-rule:nonzero;"/><path d="M280.869,115.171l-61.324,0l-15.957,34.79l-23.286,0l70.879,-152.241l68.374,152.241l-23.657,0l-15.029,-34.79Zm-8.814,-20.317l-21.245,-48.706l-22.266,48.706l43.511,0Z" style="fill-rule:nonzero;"/><path d="M418.452,28.057l-17.535,10.39c-3.278,-5.69 -6.401,-9.401 -9.37,-11.132c-3.092,-1.98 -7.081,-2.969 -11.968,-2.969c-5.999,0 -10.978,1.701 -14.936,5.102c-3.958,3.34 -5.938,7.546 -5.938,12.618c0,6.988 5.196,12.617 15.586,16.884l14.287,5.845c11.628,4.701 20.132,10.437 25.513,17.209c5.381,6.773 8.071,15.076 8.071,24.91c0,13.174 -4.391,24.059 -13.173,32.656c-8.845,8.659 -19.823,12.989 -32.935,12.989c-12.432,0 -22.699,-3.68 -30.801,-11.04c-7.978,-7.36 -12.957,-17.72 -14.936,-31.079l21.894,-4.825c0.99,8.412 2.722,14.226 5.196,17.442c4.453,6.185 10.947,9.277 19.482,9.277c6.742,0 12.339,-2.257 16.792,-6.772c4.453,-4.515 6.68,-10.236 6.68,-17.163c0,-2.784 -0.387,-5.335 -1.16,-7.654c-0.773,-2.32 -1.979,-4.453 -3.618,-6.402c-1.639,-1.948 -3.757,-3.772 -6.355,-5.473c-2.598,-1.701 -5.69,-3.325 -9.277,-4.871l-13.824,-5.752c-19.606,-8.288 -29.409,-20.41 -29.409,-36.367c0,-10.762 4.113,-19.761 12.339,-26.997c8.226,-7.298 18.462,-10.947 30.708,-10.947c16.514,0 29.409,8.04 38.687,24.121Z" style="fill-rule:nonzero;"/><path d="M527.275,27.036l-57.427,0l0,34.419l55.757,0l0,20.318l-55.757,0l0,47.871l57.427,0l0,20.317l-79.043,0l0,-143.242l79.043,0l0,20.317Z" style="fill-rule:nonzero;"/></g><g><path d="M44.71,251.729l-6.645,3.938c-1.242,-2.156 -2.426,-3.563 -3.551,-4.219c-1.172,-0.75 -2.683,-1.125 -4.535,-1.125c-2.273,0 -4.16,0.645 -5.66,1.934c-1.5,1.265 -2.25,2.859 -2.25,4.781c0,2.648 1.969,4.781 5.906,6.398l5.414,2.215c4.407,1.781 7.629,3.955 9.668,6.522c2.039,2.566 3.059,5.713 3.059,9.439c0,4.992 -1.664,9.117 -4.992,12.375c-3.352,3.281 -7.512,4.922 -12.481,4.922c-4.711,0 -8.601,-1.395 -11.672,-4.184c-3.023,-2.789 -4.91,-6.714 -5.66,-11.777l8.297,-1.828c0.375,3.187 1.031,5.391 1.969,6.609c1.687,2.344 4.148,3.516 7.383,3.516c2.554,0 4.675,-0.856 6.363,-2.566c1.687,-1.711 2.531,-3.879 2.531,-6.504c0,-1.055 -0.146,-2.022 -0.439,-2.901c-0.293,-0.879 -0.75,-1.687 -1.371,-2.426c-0.621,-0.738 -1.424,-1.429 -2.409,-2.074c-0.984,-0.644 -2.156,-1.26 -3.515,-1.845l-5.238,-2.18c-7.43,-3.141 -11.145,-7.735 -11.145,-13.781c0,-4.079 1.559,-7.489 4.676,-10.231c3.117,-2.765 6.996,-4.148 11.637,-4.148c6.257,0 11.144,3.047 14.66,9.14Z" style="fill-rule:nonzero;"/><path d="M161.991,251.343l0,46.582l-8.191,0l0,-46.582l-12.481,0l0,-7.7l33.117,0l0,7.7l-12.445,0Z" style="fill-rule:nonzero;"/><path d="M279.94,243.643l0,32.696c0,4.664 0.762,8.074 2.285,10.23c2.274,3.117 5.473,4.676 9.598,4.676c4.148,0 7.359,-1.559 9.633,-4.676c1.523,-2.086 2.285,-5.496 2.285,-10.23l0,-32.696l8.191,0l0,34.946c0,5.718 -1.781,10.429 -5.343,14.133c-4.008,4.125 -8.93,6.187 -14.766,6.187c-5.836,0 -10.746,-2.062 -14.731,-6.187c-3.562,-3.704 -5.343,-8.415 -5.343,-14.133l0,-34.946l8.191,0Z" style="fill-rule:nonzero;"/><path d="M414.94,297.925l0,-54.282l11.391,0c5.461,0 9.773,0.539 12.937,1.618c3.399,1.054 6.481,2.847 9.246,5.378c5.602,5.11 8.403,11.825 8.403,20.145c0,8.344 -2.918,15.094 -8.754,20.25c-2.93,2.578 -6,4.371 -9.211,5.379c-3,1.008 -7.254,1.512 -12.762,1.512l-11.25,0Zm8.192,-7.7l3.691,0c3.68,0 6.738,-0.386 9.176,-1.16c2.437,-0.82 4.64,-2.121 6.609,-3.902c4.031,-3.68 6.047,-8.473 6.047,-14.379c0,-5.953 -1.992,-10.781 -5.977,-14.484c-3.586,-3.305 -8.871,-4.957 -15.855,-4.957l-3.691,0l0,38.882Z" style="fill-rule:nonzero;"/><rect x="557.217" y="243.643" width="8.191" height="54.281" style="fill-rule:nonzero;"/><path d="M665.745,270.538c0,-7.641 2.801,-14.203 8.402,-19.688c5.578,-5.484 12.281,-8.226 20.11,-8.226c7.734,0 14.367,2.765 19.898,8.297c5.555,5.531 8.332,12.176 8.332,19.933c0,7.805 -2.789,14.426 -8.367,19.864c-5.602,5.461 -12.363,8.191 -20.285,8.191c-7.008,0 -13.301,-2.426 -18.879,-7.277c-6.141,-5.368 -9.211,-12.399 -9.211,-21.094Zm8.262,0.105c0,6 2.015,10.934 6.046,14.801c4.008,3.867 8.637,5.801 13.887,5.801c5.695,0 10.5,-1.969 14.414,-5.906c3.914,-3.985 5.871,-8.836 5.871,-14.555c0,-5.789 -1.933,-10.641 -5.8,-14.555c-3.844,-3.937 -8.602,-5.906 -14.274,-5.906c-5.648,0 -10.418,1.969 -14.309,5.906c-3.89,3.891 -5.835,8.696 -5.835,14.414Z" style="fill-rule:nonzero;"/><path d="M853.479,251.729l-6.644,3.938c-1.243,-2.156 -2.426,-3.563 -3.551,-4.219c-1.172,-0.75 -2.684,-1.125 -4.535,-1.125c-2.274,0 -4.16,0.645 -5.66,1.934c-1.5,1.265 -2.25,2.859 -2.25,4.781c0,2.648 1.968,4.781 5.906,6.398l5.414,2.215c4.406,1.781 7.629,3.955 9.668,6.522c2.039,2.566 3.058,5.713 3.058,9.439c0,4.992 -1.664,9.117 -4.992,12.375c-3.351,3.281 -7.511,4.922 -12.48,4.922c-4.711,0 -8.602,-1.395 -11.672,-4.184c-3.024,-2.789 -4.91,-6.714 -5.66,-11.777l8.297,-1.828c0.375,3.187 1.031,5.391 1.968,6.609c1.688,2.344 4.149,3.516 7.383,3.516c2.555,0 4.676,-0.856 6.363,-2.566c1.688,-1.711 2.532,-3.879 2.532,-6.504c0,-1.055 -0.147,-2.022 -0.44,-2.901c-0.293,-0.879 -0.75,-1.687 -1.371,-2.426c-0.621,-0.738 -1.424,-1.429 -2.408,-2.074c-0.984,-0.644 -2.156,-1.26 -3.516,-1.845l-5.238,-2.18c-7.43,-3.141 -11.144,-7.735 -11.144,-13.781c0,-4.079 1.558,-7.489 4.675,-10.231c3.118,-2.765 6.996,-4.148 11.637,-4.148c6.258,0 11.145,3.047 14.66,9.14Z" style="fill-rule:nonzero;"/></g></svg>