<?xml version="1.0" encoding="UTF-8" standalone="no"?><!DOCTYPE svg PUBLIC "-//W3C//DTD SVG 1.1//EN" "http://www.w3.org/Graphics/SVG/1.1/DTD/svg11.dtd"><svg width="100%" height="100%" viewBox="0 0 421 335" version="1.1" xmlns="http://www.w3.org/2000/svg" xmlns:xlink="http://www.w3.org/1999/xlink" xml:space="preserve" style="fill-rule:evenodd;clip-rule:evenodd;stroke-miterlimit:5;"><rect x="277.763" y="230.573" width="24.078" height="52.888" style="fill:#fc125f;stroke:#000;stroke-width:2.5px;"/><g><rect x="253.025" y="301.923" width="7.725" height="8.522" style="stroke:#000;stroke-width:2.5px;stroke-linejoin:round;stroke-miterlimit:1.41421;"/><rect x="289.894" y="300.322" width="8.04" height="10.123" style="stroke:#000;stroke-width:2.5px;stroke-linejoin:round;stroke-miterlimit:1.41421;"/><path d="M274.057,274.978l29.562,-0.187l0.379,30.328l-58.005,0.603l0.247,-14.303l24.814,-5.25l3.003,-11.191Z" style="fill:#fc9032;stroke:#000;stroke-width:2.5px;stroke-linecap:square;"/><circle cx="256.966" cy="317.064" r="8.336" style="fill:#1486b4;stroke:#000;stroke-width:2.5px;stroke-linecap:square;"/><circle cx="256.966" cy="317.027" r="2.113" style="stroke:#000;stroke-width:2.5px;stroke-linecap:square;"/><circle cx="294.047" cy="317.064" r="8.336" style="fill:#1486b4;stroke:#000;stroke-width:2.5px;stroke-linecap:square;"/><path d="M273.232,282.068l9.791,5.534" style="fill:none;stroke:#000;stroke-width:2.5px;stroke-linecap:square;"/><path d="M271.67,286.547l8.589,7.648" style="fill:none;stroke:#000;stroke-width:2.5px;stroke-linecap:square;"/><circle cx="294.047" cy="317.027" r="2.113" style="stroke:#000;stroke-width:2.5px;stroke-linecap:square;"/></g><rect x="131.86" y="230.573" width="24.078" height="52.888" style="fill:#fc125f;stroke:#000;stroke-width:2.5px;"/><g><rect x="106.148" y="300.96" width="7.725" height="8.522" style="stroke:#000;stroke-width:2.5px;stroke-linejoin:round;stroke-miterlimit:1.41421;"/><rect x="143.017" y="299.358" width="8.04" height="10.123" style="stroke:#000;stroke-width:2.5px;stroke-linejoin:round;stroke-miterlimit:1.41421;"/><path d="M127.18,274.015l29.562,-0.187l0.378,30.328l-58.004,0.603l0.247,-14.303l24.814,-5.25l3.003,-11.191Z" style="fill:#fc9032;stroke:#000;stroke-width:2.5px;stroke-linecap:square;"/><circle cx="110.089" cy="316.101" r="8.336" style="fill:#1486b4;stroke:#000;stroke-width:2.5px;stroke-linecap:square;"/><circle cx="110.089" cy="316.064" r="2.113" style="stroke:#000;stroke-width:2.5px;stroke-linecap:square;"/><circle cx="147.17" cy="316.101" r="8.336" style="fill:#1486b4;stroke:#000;stroke-width:2.5px;stroke-linecap:square;"/><path d="M126.355,281.105l9.791,5.534" style="fill:none;stroke:#000;stroke-width:2.5px;stroke-linecap:square;"/><path d="M124.793,285.583l8.588,7.649" style="fill:none;stroke:#000;stroke-width:2.5px;stroke-linecap:square;"/><circle cx="147.17" cy="316.064" r="2.113" style="stroke:#000;stroke-width:2.5px;stroke-linecap:square;"/></g><path d="M342.935,148.886l-34.443,-11.713l-3.042,8.944l34.443,11.713l3.042,-8.944Z" style="fill:#fc125f;"/><path d="M346.107,147.324l-4.652,13.678l-39.177,-13.323l4.652,-13.678l39.177,13.323Zm-40.657,-1.207l34.443,11.713l3.042,-8.944l-34.443,-11.713l-3.042,8.944Z"/><path d="M342.435,148.01l62.123,7.052l-38.928,4.584l40.507,23.214l-43.621,-10l11.843,35.409l-22.276,-33.476l-6.776,16.957l-7.989,-34.625l5.117,-9.115Z" style="fill:#fc125f;"/><path d="M417.056,153.964l0.004,2.143l-43.615,5.136l44.577,25.547l-0.488,1.248l-51.234,-11.745l14.324,42.827l-1.545,0.756l-26.44,-39.736l-7.973,19.951l-10.002,-43.346l6.403,-11.406l75.989,8.625Zm-79.738,3.161l7.989,34.625l6.776,-16.957l22.276,33.476l-11.843,-35.409l43.621,10l-40.507,-23.214l38.928,-4.584l-62.123,-7.052l-5.117,9.115Z"/><rect x="277.763" y="177.685" width="24.078" height="52.888" style="fill:#fff;stroke:#000;stroke-width:2.5px;"/><rect x="131.86" y="177.685" width="24.078" height="52.888" style="fill:#fff;stroke:#000;stroke-width:2.5px;"/><path d="M95.45,135.066l42.304,45.214l3.943,-39.518l-35.558,-33.882l-10.689,28.186Z" style="fill:#fff;"/><path d="M144.306,139.795l-4.612,46.218l-47.134,-50.376l12.577,-33.165l39.169,37.323Zm-48.856,-4.729l42.304,45.214l3.943,-39.518l-35.558,-33.882l-10.689,28.186Z"/><rect x="126.348" y="134.507" width="187.366" height="51.066" style="fill:#fff;"/><path d="M316.214,188.073l-192.366,0l0,-56.066l192.366,0l0,56.066Zm-189.866,-53.566l0,51.066l187.366,0l0,-51.066l-187.366,0Z"/><rect x="144.289" y="186.549" width="24.078" height="52.888" style="fill:#fff;stroke:#000;stroke-width:2.5px;"/><rect x="144.289" y="239.437" width="24.078" height="52.888" style="fill:#fc125f;stroke:#000;stroke-width:2.5px;"/><rect x="290.192" y="186.549" width="24.078" height="52.888" style="fill:#fff;stroke:#000;stroke-width:2.5px;"/><rect x="290.192" y="239.437" width="24.078" height="52.888" style="fill:#fc125f;stroke:#000;stroke-width:2.5px;"/><path d="M6.137,138.172l0,20.177l20.251,0l72.258,-25.52l11.073,-54.129l-25.75,-0.68l-25.209,8.906l-52.623,51.246Z" style="fill:#fff;"/><path d="M112.766,76.28l-11.954,58.436l-73.995,26.133l-23.18,0l0,-23.732l53.772,-52.365l26.164,-9.244l29.193,0.772Zm-54.006,10.646l-52.623,51.246l0,20.177l20.251,0l72.258,-25.52l11.073,-54.129l-25.75,-0.68l-25.209,8.906Z"/><path d="M79.366,78.424l12.739,71.356l-0.467,-61.969l21.569,54.226l-4.887,-38.588l27.258,54.1l-7.493,-44.065l34.969,62.573l-5.988,-46.437l36.578,59.04l-19.47,-69.336l24.741,13.143l-71.456,-54.938l-48.093,0.895Z" style="fill:#fc125f;"/><path d="M210.218,138.003l-1.583,2.458l-30.475,-16.188l21.208,75.525l-1.387,0.609l-36.959,-59.655l6.077,47.133l-0.253,0.084l-33.864,-60.596l7.117,41.847l-1.235,0.406l-26.238,-52.074l4.605,36.356l-1.807,0.466l-21.186,-53.261l0.46,60.981l-2.886,0.266l-15.422,-86.381l12.656,-0.236l-0.001,-0.161l0.388,-0.076l0.091,0.228l38.764,-0.721l81.93,62.99Zm-130.852,-59.579l12.739,71.356l-0.467,-61.969l21.569,54.226l-4.887,-38.588l27.258,54.1l-7.493,-44.065l34.969,62.573l-5.988,-46.437l36.578,59.04l-19.47,-69.336l24.741,13.143l-71.456,-54.938l-48.093,0.895Z"/><g><rect x="50.537" y="99.35" width="27.946" height="27.946" style="fill:#fff;fill-rule:nonzero;stroke:#231f20;stroke-width:2.5px;stroke-miterlimit:10;"/><rect x="51.171" y="111.785" width="14.817" height="14.817" style="fill:#3f62ad;fill-rule:nonzero;"/></g><path d="M81.072,76.692l-61.805,-65.396l40.126,73.042l21.679,-7.646Z" style="fill:#fcdd32;"/><path d="M85.531,77.77l-27.308,9.632l-47.061,-85.667l1.486,-1.082l72.883,77.117Zm-26.138,6.568l21.679,-7.646l-61.805,-65.396l40.126,73.042Z"/><rect x="12.562" y="140.538" width="11.731" height="11.731" style="fill:#f778a4;"/><path d="M26.793,154.768l-16.731,0l0,-16.73l16.731,0l0,16.73Zm-14.231,-14.23l0,11.73l11.731,0l0,-11.73l-11.731,0Z"/><path d="M48.305,65.641l17.096,-5.616l-11.37,-12.945l-13.407,4.283l7.681,14.278Z" style="fill:#1cb2bf;stroke:#000;stroke-width:2.5px;stroke-linecap:square;"/><path d="M34.027,39.276l9.554,-3.191l-9.359,-9.946l-5.898,2.189l5.703,10.948Z" style="fill:#1cb2bf;stroke:#000;stroke-width:2.5px;stroke-linecap:square;"/><path d="M22.336,17.793l3.05,-1.258l-7.349,-7.478l4.299,8.736Z" style="fill:#1cb2bf;stroke:#000;stroke-width:2.5px;stroke-linecap:square;"/><g><rect x="120.595" y="307.702" width="7.725" height="8.522" style="stroke:#000;stroke-width:2.5px;stroke-linejoin:round;stroke-miterlimit:1.41421;"/><rect x="157.464" y="306.1" width="8.04" height="10.123" style="stroke:#000;stroke-width:2.5px;stroke-linejoin:round;stroke-miterlimit:1.41421;"/><path d="M141.627,280.757l29.562,-0.187l0.378,30.328l-58.004,0.603l0.247,-14.303l24.814,-5.25l3.003,-11.191Z" style="fill:#fc9032;stroke:#000;stroke-width:2.5px;stroke-linecap:square;"/><circle cx="124.536" cy="322.843" r="8.336" style="fill:#1486b4;stroke:#000;stroke-width:2.5px;stroke-linecap:square;"/><circle cx="124.536" cy="322.805" r="2.113" style="stroke:#000;stroke-width:2.5px;stroke-linecap:square;"/><circle cx="161.616" cy="322.843" r="8.336" style="fill:#1486b4;stroke:#000;stroke-width:2.5px;stroke-linecap:square;"/><path d="M140.802,287.847l9.791,5.534" style="fill:none;stroke:#000;stroke-width:2.5px;stroke-linecap:square;"/><path d="M139.239,292.325l8.589,7.649" style="fill:none;stroke:#000;stroke-width:2.5px;stroke-linecap:square;"/><circle cx="161.616" cy="322.805" r="2.113" style="stroke:#000;stroke-width:2.5px;stroke-linecap:square;"/></g><g><rect x="267.472" y="307.702" width="7.725" height="8.522" style="stroke:#000;stroke-width:2.5px;stroke-linejoin:round;stroke-miterlimit:1.41421;"/><rect x="304.341" y="306.1" width="8.04" height="10.123" style="stroke:#000;stroke-width:2.5px;stroke-linejoin:round;stroke-miterlimit:1.41421;"/><path d="M288.504,280.757l29.562,-0.187l0.379,30.328l-58.005,0.603l0.247,-14.303l24.814,-5.25l3.003,-11.191Z" style="fill:#fc9032;stroke:#000;stroke-width:2.5px;stroke-linecap:square;"/><circle cx="271.413" cy="322.843" r="8.336" style="fill:#1486b4;stroke:#000;stroke-width:2.5px;stroke-linecap:square;"/><circle cx="271.413" cy="322.805" r="2.113" style="stroke:#000;stroke-width:2.5px;stroke-linecap:square;"/><circle cx="308.494" cy="322.843" r="8.336" style="fill:#1486b4;stroke:#000;stroke-width:2.5px;stroke-linecap:square;"/><path d="M287.679,287.847l9.791,5.534" style="fill:none;stroke:#000;stroke-width:2.5px;stroke-linecap:square;"/><path d="M286.117,292.325l8.589,7.649" style="fill:none;stroke:#000;stroke-width:2.5px;stroke-linecap:square;"/><circle cx="308.494" cy="322.805" r="2.113" style="stroke:#000;stroke-width:2.5px;stroke-linecap:square;"/></g></svg>